<?xml version="1.0" encoding="iso-8859-1"?>
<!-- Generator: Adobe Illustrator 19.0.0, SVG Export Plug-In . SVG Version: 6.00 Build 0)  -->
<svg version="1.1" id="Capa_1" xmlns="http://www.w3.org/2000/svg" xmlns:xlink="http://www.w3.org/1999/xlink" x="0px" y="0px"
	 viewBox="0 0 511.998 511.998" style="enable-background:new 0 0 511.998 511.998;" xml:space="preserve">
<g>
	<path style="fill:#FF9052;" d="M441.637,61.207h-73.254V85.51h67.566v110.795c0,41.376-33.661,75.038-75.038,75.038h-10.911
		c-6.56,9.198-14.439,17.388-23.356,24.303h34.265c54.777,0,99.341-44.565,99.341-99.341V79.822
		C460.251,69.557,451.902,61.207,441.637,61.207z"/>
	<path style="fill:#FF9052;" d="M161.998,271.342h-10.91c-41.377,0-75.038-33.661-75.038-75.038V85.51h67.566V61.207H70.363
		c-10.265,0-18.615,8.351-18.615,18.615v116.483c0,54.777,44.565,99.341,99.341,99.341h34.265
		C176.437,288.73,168.558,280.54,161.998,271.342z"/>
</g>
<path style="fill:#FEA82F;" d="M256,320.802L256,320.802c-12.42,0-24.376-1.97-35.586-5.601l-18.5,86.019
	c15.134,0,93.084,0,108.173,0l-18.5-86.019C280.376,318.833,268.419,320.802,256,320.802z"/>
<path style="fill:#FFC850;" d="M140.617,38.17v169.25c0,63.724,51.658,115.383,115.383,115.383l0,0
	c63.724,0,115.383-51.658,115.383-115.383V38.17H140.617z"/>
<path style="fill:#FF9052;" d="M220.414,315.201l-18.5,86.019h20.001l17.554-81.618
	C232.926,318.661,226.554,317.191,220.414,315.201z"/>
<path style="fill:#FEA82F;" d="M160.618,207.421V38.17h-20.001v169.25c0,63.724,51.658,115.382,115.382,115.382l0,0
	c3.37,0,6.703-0.153,10.001-0.436C206.96,317.297,160.618,267.774,160.618,207.421z"/>
<path style="fill:#FF9052;" d="M258.609,90.797l15.399,31.201c0.424,0.859,1.243,1.454,2.191,1.592l34.432,5.003
	c2.387,0.347,3.34,3.28,1.613,4.963l-24.915,24.286c-0.686,0.668-0.999,1.632-0.837,2.575l5.881,34.293
	c0.408,2.377-2.087,4.19-4.222,3.067l-30.797-16.191c-0.848-0.446-1.86-0.446-2.708,0l-30.797,16.191
	c-2.135,1.122-4.629-0.69-4.222-3.067l5.881-34.293c0.162-0.944-0.151-1.907-0.837-2.575l-24.916-24.286
	c-1.727-1.683-0.774-4.616,1.613-4.963l34.432-5.003c0.948-0.138,1.767-0.733,2.191-1.592l15.399-31.201
	C254.458,88.634,257.542,88.634,258.609,90.797z"/>
<path style="fill:#FF8031;" d="M243.841,160.419c0.162-0.944-0.151-1.907-0.837-2.575l-24.916-24.286
	c-1.727-1.683-0.774-4.616,1.613-4.963l34.432-5.003c0.948-0.138,1.767-0.733,2.191-1.592l8.842-17.915l-6.557-13.286
	c-1.067-2.163-4.151-2.163-5.218,0l-15.399,31.201c-0.424,0.859-1.243,1.454-2.191,1.592l-34.432,5.003
	c-2.387,0.347-3.34,3.28-1.613,4.963l24.916,24.286c0.686,0.668,0.999,1.632,0.837,2.575l-5.881,34.293
	c-0.408,2.377,2.087,4.19,4.222,3.067l14.931-7.849L243.841,160.419z"/>
<path style="fill:#FEA82F;" d="M392.888,45.171H119.111c-6.6,0-12.001-5.4-12.001-12.001V19.501c0-6.6,5.4-12.001,12.001-12.001
	h273.778c6.6,0,12.001,5.4,12.001,12.001V33.17C404.889,39.77,399.489,45.171,392.888,45.171z"/>
<path style="fill:#FF9052;" d="M392.888,25.121H119.111c-5.495,0-10.147-3.748-11.554-8.811c-0.283,1.018-0.447,2.085-0.447,3.191
	V33.17c0,6.6,5.4,12.001,12.001,12.001h273.778c6.6,0,12.001-5.4,12.001-12.001V19.501c0-1.105-0.164-2.172-0.447-3.191
	C403.035,21.372,398.384,25.121,392.888,25.121z"/>
<path style="fill:#ABFFDB;" d="M374.124,504.5H137.876c-6.6,0-12.001-5.4-12.001-12.001v-80.277c0-6.6,5.4-12.001,12.001-12.001
	h236.248c6.6,0,12.001,5.4,12.001,12.001v80.277C386.125,499.099,380.725,504.5,374.124,504.5z"/>
<path style="fill:#92E0C0;" d="M145.876,492.499v-80.277c0-6.6,5.4-12.001,12.001-12.001h-20.001c-6.6,0-12.001,5.4-12.001,12.001
	v80.277c0,6.6,5.4,12.001,12.001,12.001h20.001C151.277,504.5,145.876,499.099,145.876,492.499z"/>
<g>
	<path style="fill:#474D54;" d="M181.399,444.86c-4.143,0-7.5,3.357-7.5,7.5c0,4.143,3.357,7.5,7.5,7.5h149.196
		c4.143,0,7.5-3.357,7.5-7.5c0-4.143-3.357-7.5-7.5-7.5H181.399z"/>
	<path style="fill:#474D54;" d="M392.886,0H272.923c-4.143,0-7.5,3.358-7.5,7.5s3.357,7.5,7.5,7.5h119.963
		c2.439,0,4.5,2.061,4.5,4.5V33.17c0,2.439-2.061,4.5-4.5,4.5l0,0H119.108l0,0c-2.439,0-4.5-2.061-4.5-4.5V19.501
		c0-2.439,2.061-4.5,4.5-4.5h118.813c4.143,0,7.5-3.358,7.5-7.5s-3.357-7.5-7.5-7.5H119.108c-10.753,0-19.501,8.749-19.501,19.501
		V33.17c0,10.753,8.749,19.501,19.501,19.501h14.006V204.42c0,52.147,32.654,96.806,78.586,114.618l-15.847,73.681h-57.98
		c-10.753,0-19.501,8.749-19.501,19.501v80.276c0,10.753,8.749,19.501,19.501,19.501h236.248c10.753,0,19.501-8.749,19.501-19.501
		v-22.637c0-4.143-3.357-7.5-7.5-7.5s-7.5,3.357-7.5,7.5v22.637c0,2.439-2.061,4.5-4.5,4.5H137.873c-2.439,0-4.5-2.061-4.5-4.5
		v-80.276c0-2.439,2.061-4.501,4.5-4.501l0,0h236.248l0,0c2.439,0,4.5,2.062,4.5,4.501v22.637c0,4.143,3.357,7.5,7.5,7.5
		s7.5-3.357,7.5-7.5v-22.637c0-10.753-8.749-19.501-19.501-19.501h-57.98l-15.847-73.681
		c45.932-17.813,78.586-62.471,78.586-114.618V52.671h14.006c10.753,0,19.501-8.749,19.501-19.501V19.501
		C412.387,8.749,403.639,0,392.886,0z M285.938,323.621l14.861,69.1h-89.603l14.861-69.1c0.419,0.105,0.842,0.195,1.262,0.296
		c0.524,0.126,1.049,0.25,1.575,0.369c0.554,0.125,1.109,0.246,1.664,0.363c0.616,0.13,1.234,0.253,1.853,0.374
		c0.491,0.096,0.981,0.193,1.473,0.283c0.832,0.152,1.668,0.292,2.506,0.426c0.288,0.046,0.574,0.099,0.863,0.143
		c1.124,0.173,2.254,0.328,3.388,0.47c0.346,0.043,0.694,0.079,1.041,0.119c0.818,0.095,1.637,0.185,2.459,0.264
		c0.408,0.039,0.817,0.074,1.226,0.109c0.777,0.067,1.555,0.127,2.336,0.179c0.408,0.027,0.816,0.055,1.224,0.078
		c0.831,0.047,1.664,0.084,2.499,0.115c0.343,0.013,0.686,0.029,1.029,0.039c1.176,0.033,2.356,0.054,3.54,0.054
		c1.184,0,2.364-0.021,3.54-0.054c0.343-0.01,0.686-0.027,1.029-0.039c0.835-0.031,1.668-0.067,2.499-0.115
		c0.409-0.023,0.817-0.05,1.225-0.078c0.781-0.052,1.559-0.112,2.336-0.179c0.409-0.035,0.818-0.07,1.226-0.109
		c0.822-0.079,1.641-0.169,2.459-0.264c0.347-0.04,0.694-0.076,1.041-0.119c1.134-0.142,2.264-0.297,3.388-0.47
		c0.288-0.044,0.575-0.097,0.863-0.143c0.838-0.135,1.673-0.275,2.505-0.426c0.492-0.09,0.983-0.188,1.474-0.283
		c0.619-0.121,1.237-0.244,1.852-0.374c0.556-0.117,1.11-0.238,1.664-0.363c0.527-0.119,1.051-0.243,1.575-0.369
		C285.096,323.816,285.519,323.726,285.938,323.621z M363.88,204.42c0,48.231-31.815,89.167-75.561,102.934
		c-0.598,0.188-1.198,0.367-1.798,0.544c-0.798,0.236-1.6,0.462-2.406,0.68c-0.689,0.186-1.379,0.366-2.071,0.538
		c-0.472,0.117-0.944,0.236-1.419,0.347c-1.063,0.248-2.129,0.482-3.198,0.698c-0.373,0.075-0.748,0.144-1.122,0.216
		c-0.936,0.179-1.874,0.346-2.815,0.5c-0.287,0.047-0.573,0.098-0.861,0.143c-1.178,0.183-2.36,0.343-3.545,0.487
		c-0.306,0.037-0.614,0.071-0.921,0.106c-1.137,0.128-2.276,0.242-3.418,0.334c-0.113,0.009-0.224,0.021-0.337,0.03
		c-1.245,0.096-2.494,0.165-3.745,0.219c-0.286,0.012-0.573,0.023-0.859,0.033c-1.266,0.044-2.533,0.074-3.803,0.074
		s-2.537-0.03-3.803-0.074c-0.287-0.01-0.573-0.021-0.859-0.033c-1.251-0.053-2.5-0.122-3.745-0.219
		c-0.112-0.009-0.224-0.021-0.336-0.03c-1.142-0.092-2.282-0.206-3.419-0.334c-0.307-0.035-0.615-0.068-0.921-0.106
		c-1.185-0.144-2.367-0.304-3.545-0.487c-0.288-0.045-0.574-0.096-0.861-0.143c-0.941-0.154-1.879-0.321-2.815-0.5
		c-0.374-0.072-0.749-0.14-1.122-0.216c-1.07-0.216-2.136-0.45-3.199-0.698c-0.474-0.111-0.946-0.229-1.417-0.347
		c-0.693-0.172-1.383-0.353-2.072-0.539c-0.806-0.218-1.608-0.444-2.406-0.68c-0.601-0.177-1.201-0.356-1.798-0.544
		c-43.746-13.766-75.561-54.703-75.561-102.934V52.671h215.765V204.42H363.88z"/>
</g>
<g>
</g>
<g>
</g>
<g>
</g>
<g>
</g>
<g>
</g>
<g>
</g>
<g>
</g>
<g>
</g>
<g>
</g>
<g>
</g>
<g>
</g>
<g>
</g>
<g>
</g>
<g>
</g>
<g>
</g>
</svg>
